<svg viewBox="0 0 16 16" fill="none" xmlns="http://www.w3.org/2000/svg">
<path d="M2.17285 12.7739C2.52832 12.7739 2.83512 12.7147 3.09326 12.5962C3.35563 12.4777 3.5778 12.3317 3.75977 12.1582C3.94173 11.9847 4.09196 11.7964 4.21045 11.5933C4.33317 11.3901 4.43262 11.2018 4.50879 11.0283L7.99365 3.13184H6.04492L4.47705 7.16895L4.2168 7.85449L4.02637 7.15625L2.45215 3.13184H0.522461L3.42969 9.70801L3.02344 10.4634C2.97266 10.5565 2.92822 10.6284 2.89014 10.6792C2.85628 10.73 2.80127 10.8062 2.7251 10.9077C2.64893 11.0093 2.55583 11.1024 2.4458 11.187C2.34001 11.2759 2.21729 11.3203 2.07764 11.3203C2.00993 11.3203 1.91895 11.3161 1.80469 11.3076C1.69466 11.3034 1.60368 11.3013 1.53174 11.3013L1.31592 12.647C1.46826 12.6893 1.60579 12.721 1.72852 12.7422C1.85547 12.7633 2.00358 12.7739 2.17285 12.7739ZM11.4785 7.1626L13.4272 10H15.5918L12.6401 5.99463L15.23 3.13184H13.1099L11.2119 5.21387L10.6787 5.82324V0.25H8.91406V10H10.6787V7.90527L11.4785 7.1626Z" fill="#2AA198"/>
</svg>
